<svg width="43" height="48" viewBox="0 0 43 48" fill="none" xmlns="http://www.w3.org/2000/svg">
<path d="M41.8886 11.961L42.0032 11.8845C41.774 11.4642 41.43 11.0821 41.0861 10.891L22.6288 0.267498C22.3231 0.076428 21.9027 0 21.4441 0C20.9856 0 20.5652 0.114642 20.2595 0.267498L1.9168 10.9292C1.26716 11.3113 0.808594 12.2667 0.808594 12.9927V34.2779C0.808594 34.6983 0.885022 35.1568 1.15252 35.5772L1.07609 35.6154C1.26716 35.9211 1.53466 36.1886 1.80216 36.3415L20.2213 47.0032C20.527 47.1942 20.9474 47.2707 21.4059 47.2707C21.8645 47.2707 22.2848 47.156 22.5906 47.0032L40.9333 36.3415C41.5829 35.9593 42.0415 35.004 42.0415 34.2779V12.9545C42.0797 12.6488 42.0415 12.3049 41.8886 11.961ZM21.4441 38.7107C13.1135 38.7107 6.34962 31.9469 6.34962 23.6162C6.34962 15.2856 13.1135 8.52171 21.4441 8.52171C27.0616 8.52171 31.953 11.617 34.5515 16.1645L29.5837 19.0306C27.9787 16.1645 24.9216 14.2538 21.4441 14.2538C16.2852 14.2538 12.0817 18.4573 12.0817 23.6162C12.0817 28.7751 16.2852 32.9787 21.4441 32.9787C24.9216 32.9787 27.9787 31.068 29.5837 28.2401L34.5133 31.1444C31.9148 35.6536 27.0234 38.7107 21.4441 38.7107ZM40.9333 22.852H39.7104L39.3665 24.3805H40.9333V26.2912H39.0226L38.564 28.584H36.6915L37.1501 26.2912H35.6979L35.2394 28.584H33.4051L33.8637 26.2912H32.9083V24.3805H34.2458L34.5897 22.852H32.9083V20.9413H34.9337L35.3922 18.6484H37.2647L36.8061 20.9413H38.2583L38.7168 18.6484H40.5511L40.0925 20.9413H40.9333V22.852ZM36.0801 24.3805H37.5322L37.8761 22.852H36.424L36.0801 24.3805Z" fill="#68217A"/>
</svg>
