<?xml version="1.0" encoding="UTF-8" standalone="no"?>
<svg
   viewBox="0 0 128 128"
   version="1.1"
   id="svg4"
   sodipodi:docname="css3.svg"
   inkscape:version="1.2 (dc2aedaf03, 2022-05-15)"
   xmlns:inkscape="http://www.inkscape.org/namespaces/inkscape"
   xmlns:sodipodi="http://sodipodi.sourceforge.net/DTD/sodipodi-0.dtd"
   xmlns="http://www.w3.org/2000/svg"
   xmlns:svg="http://www.w3.org/2000/svg">
  <defs
     id="defs8" />
  <sodipodi:namedview
     id="namedview6"
     pagecolor="#ffffff"
     bordercolor="#666666"
     borderopacity="1.0"
     inkscape:pageshadow="2"
     inkscape:pageopacity="0.0"
     inkscape:pagecheckerboard="0"
     showgrid="false"
     inkscape:zoom="2.9112912"
     inkscape:cx="121.0803"
     inkscape:cy="17.689745"
     inkscape:window-width="1366"
     inkscape:window-height="713"
     inkscape:window-x="0"
     inkscape:window-y="0"
     inkscape:window-maximized="1"
     inkscape:current-layer="svg4"
     inkscape:showpageshadow="2"
     inkscape:deskcolor="#d1d1d1" />
  <path
     fill="#1572B6"
     d="M19.67 26l8.069 90.493 36.206 10.05 36.307-10.063L108.33 26H19.67zm69.21 50.488L86.53 98.38l.009 1.875L64 106.55v.001l-.018.015-22.719-6.225L39.726 83h11.141l.79 8.766 12.347 3.295-.004.015v-.032l12.394-3.495L77.702 77H51.795l-.222-2.355-.506-5.647L50.802 66h27.886l1.014-11H37.229l-.223-2.589-.506-6.03L36.235 43h55.597l-.267 3.334-2.685 30.154M89 14.374L81.851 6H89V1H73v4.363L81.39 13H73v5h16zm-19 0L63.193 6H70V1H55v4.363L62.733 13H55v5h15zM52 13h-8V6h8V1H38v17h14z"
     id="path2" />
</svg>
