<!DOCTYPE svg PUBLIC "-//W3C//DTD SVG 1.1//EN" "http://www.w3.org/Graphics/SVG/1.1/DTD/svg11.dtd">
<!-- Uploaded to: SVG Repo, www.svgrepo.com, Transformed by: SVG Repo Mixer Tools -->
<svg width="800px" height="800px" viewBox="0 0 96 96" xmlns="http://www.w3.org/2000/svg" fill="#000000">
<g id="SVGRepo_bgCarrier" stroke-width="0"/>
<g id="SVGRepo_tracerCarrier" stroke-linecap="round" stroke-linejoin="round"/>
<g id="SVGRepo_iconCarrier">
<title/>
<path d="M94,23.5A7.51,7.51,0,0,1,86.5,31H71.14a7.5,7.5,0,0,1,0,15H67.5a7.5,7.5,0,0,1,0,15h-4a7.5,7.5,0,0,1,0,15H32a30,30,0,0,1,0-60H86.5A7.5,7.5,0,0,1,94,23.5Z" style="fill:#eaeaea"/>
<path d="M94,23.5A7.51,7.51,0,0,1,86.5,31H71.14a7.5,7.5,0,0,1,0,15H67.5a7.5,7.5,0,0,1,0,15h-4a7.5,7.5,0,0,1,0,15H32a30,30,0,0,1,0-60H86.5A7.5,7.5,0,0,1,94,23.5Z" style="fill:none;stroke:#281a3b;stroke-linecap:round;stroke-linejoin:round;stroke-width:4px"/>
<path d="M94,23.5A7.51,7.51,0,0,1,86.5,31H48V23.68A7.66,7.66,0,0,0,40.36,16H86.5A7.5,7.5,0,0,1,94,23.5Z" style="fill:#eaeaea"/>
<path d="M47.07,20H86.5a7.5,7.5,0,0,1,7.22,5.5A7.48,7.48,0,0,0,86.5,16H40.36A7.64,7.64,0,0,1,47.07,20Z" style="fill:#eaeaea"/>
<path d="M71.14,31H48v4H71.14a7.5,7.5,0,0,1,7.22,5.5,7.49,7.49,0,0,0,.28-2h0A7.5,7.5,0,0,0,71.14,31Z" style="fill:#eaeaea"/>
<path d="M74.72,55.5A7.48,7.48,0,0,0,67.5,46H48v4H67.5A7.5,7.5,0,0,1,74.72,55.5Z" style="fill:#eaeaea"/>
<path d="M63.5,61h-16A7.5,7.5,0,0,0,40,68.5h0a7.49,7.49,0,0,0,.28,2A7.5,7.5,0,0,1,47.5,65h16a7.5,7.5,0,0,1,7.22,5.5,7.49,7.49,0,0,0,.28-2h0A7.5,7.5,0,0,0,63.5,61Z" style="fill:#eaeaea"/>
<path d="M40,61a4.19,4.19,0,0,0,.5,0H40Z" style="fill:none;stroke:#281a3b;stroke-linecap:round;stroke-linejoin:round;stroke-width:4px"/>
<rect height="15" rx="7.5" ry="7.5" style="fill:none;stroke:#281a3b;stroke-linecap:round;stroke-linejoin:round;stroke-width:4px" width="31" x="40" y="61"/>
<ellipse cx="86.33" cy="47.79" rx="1.92" ry="1.92" style="fill:none;stroke:#281a3b;stroke-linecap:round;stroke-linejoin:round;stroke-width:4px"/>
<path d="M86.33,80.5a6.06,6.06,0,0,1-5.75-6c0-4.41,5.75-10.95,5.75-10.95s5.75,6.54,5.75,10.95A6.06,6.06,0,0,1,86.33,80.5Z" style="fill:#f47c6d"/>
<path d="M86.33,80.5a6.06,6.06,0,0,1-5.75-6c0-4.41,5.75-10.95,5.75-10.95s5.75,6.54,5.75,10.95A6.06,6.06,0,0,1,86.33,80.5Z" style="fill:none;stroke:#281a3b;stroke-linecap:round;stroke-linejoin:round;stroke-width:4px"/>
<path d="M33,31l0,22.51A7.49,7.49,0,0,0,40.5,61h0A7.49,7.49,0,0,0,48,53.51V23.68A7.66,7.66,0,0,0,40.36,16" style="fill:none;stroke:#281a3b;stroke-linecap:round;stroke-linejoin:round;stroke-width:4px"/>
<line style="fill:none;stroke:#281a3b;stroke-linecap:round;stroke-linejoin:round;stroke-width:4px" x1="86.5" x2="79.5" y1="31" y2="24"/>
<path d="M48,23.68V53.51A7.49,7.49,0,0,1,40.5,61a7,7,0,0,1-2-.28,7.36,7.36,0,0,0,3.3-1.91,7.47,7.47,0,0,0,2.2-5.3V23.68a7.67,7.67,0,0,0-4.07-6.79l.43-.89A7.66,7.66,0,0,1,48,23.68Z" style="fill:#eaeaea"/>
<path d="M94,23.5A7.51,7.51,0,0,1,86.5,31H48V23.68A7.66,7.66,0,0,0,40.36,16H86.5A7.5,7.5,0,0,1,94,23.5Z" style="fill:none;stroke:#281a3b;stroke-linecap:round;stroke-linejoin:round;stroke-width:4px"/>
<path d="M71.14,46H48V31H71.14a7.5,7.5,0,0,1,7.5,7.5h0A7.5,7.5,0,0,1,71.14,46Z" style="fill:none;stroke:#281a3b;stroke-linecap:round;stroke-linejoin:round;stroke-width:4px"/>
<path d="M75,53.5A7.51,7.51,0,0,1,67.5,61h-27A7.49,7.49,0,0,0,48,53.51V46H67.5A7.5,7.5,0,0,1,75,53.5Z" style="fill:none;stroke:#281a3b;stroke-linecap:round;stroke-linejoin:round;stroke-width:4px"/>
</g>
</svg>