<?xml version="1.0" encoding="UTF-8" standalone="no"?>
<svg
   viewBox="52 42 88 66"
   version="1.1"
   id="svg12"
   sodipodi:docname="gmail.svg"
   inkscape:version="1.2.1 (9c6d41e410, 2022-07-14)"
   xmlns:inkscape="http://www.inkscape.org/namespaces/inkscape"
   xmlns:sodipodi="http://sodipodi.sourceforge.net/DTD/sodipodi-0.dtd"
   xmlns="http://www.w3.org/2000/svg"
   xmlns:svg="http://www.w3.org/2000/svg">
  <defs
     id="defs16" />
  <sodipodi:namedview
     id="namedview14"
     pagecolor="#ffffff"
     bordercolor="#000000"
     borderopacity="0.25"
     inkscape:showpageshadow="2"
     inkscape:pageopacity="0.0"
     inkscape:pagecheckerboard="0"
     inkscape:deskcolor="#d1d1d1"
     showgrid="false"
     inkscape:zoom="5.7318504"
     inkscape:cx="23.203676"
     inkscape:cy="36.724615"
     inkscape:window-width="1366"
     inkscape:window-height="707"
     inkscape:window-x="0"
     inkscape:window-y="0"
     inkscape:window-maximized="1"
     inkscape:current-layer="svg12" />
  <path
     fill="#4285f4"
     d="M 69.288122,95.109967 H 79.12934 V 74.387183 L 65.070458,65.244778 v 26.208227 c 0,2.023519 1.890919,3.656962 4.217664,3.656962"
     id="path2"
     style="stroke-width:0.654553" />
  <path
     fill="#34a853"
     d="m 112.87066,95.109967 h 9.84122 c 2.33377,0 4.21766,-1.639538 4.21766,-3.656962 V 65.244778 l -14.05888,9.142405"
     id="path4"
     style="stroke-width:0.654553" />
  <path
     fill="#fbbc04"
     d="m 112.87066,58.540348 v 15.846835 l 14.05888,-9.142405 v -4.875949 c 0,-4.522442 -5.95393,-7.100601 -10.12239,-4.388354"
     id="path6"
     style="stroke-width:0.654553" />
  <path
     fill="#ea4335"
     d="M 79.12934,74.387183 V 58.540348 L 96,69.511234 112.87066,58.540348 V 74.387183 L 96,85.358068"
     id="path8"
     style="stroke-width:0.654553" />
  <path
     fill="#c5221f"
     d="m 65.070458,60.368829 v 4.875949 L 79.12934,74.387183 V 58.540348 L 75.192853,55.980475 C 71.017365,53.268228 65.070458,55.846387 65.070458,60.368829"
     id="path10"
     style="stroke-width:0.654553" />
</svg>
