<?xml version="1.0" encoding="utf-8"?>
<!-- Uploaded to: SVG Repo, www.svgrepo.com, Generator: SVG Repo Mixer Tools -->
<svg width="800px" height="800px" viewBox="0 0 1024 1024" class="icon"  version="1.1" xmlns="http://www.w3.org/2000/svg"><path d="M397.4 352.7v87.2c0 64.1 51 116 114 116s114-51.9 114-116v-87.2h-228z" fill="#F07067" /><path d="M641.7 439.9V278.8c0-9-7.3-16.3-16.3-16.3h-228c-9 0-16.3 7.3-16.3 16.3v161.1c0 67.3 49.8 122.9 114 131.1v163H422c-9.1 0-16.5 7.3-16.5 16.3s7.4 16.3 16.5 16.3h84.2c1.6 0.5 3.3 0.9 5.1 0.9s3.5-0.4 5.1-0.9h84.2c9.1 0 16.5-7.3 16.5-16.3s-7.4-16.3-16.5-16.3h-73V571c64.3-8.1 114.1-63.7 114.1-131.1z m-32.5 0c0 55-43.8 99.7-97.7 99.7s-97.7-44.7-97.7-99.7v-79.6h195.5v79.6z m0-144.8V344H413.7v-48.9h195.5z" fill="#211F1E" /></svg>